# Blender v3.2.2 OBJ File: 'lowpolyghost.blend'
# www.blender.org
mtllib ghost_lp.mtl
o Cube
v 0.553372 -0.092377 -0.553372
v 0.553372 -0.092377 0.427548
v -0.310349 1.507680 -0.307259
v -0.553372 -0.048368 0.475818
v 0.482828 1.034984 0.561189
v 0.462032 0.518709 -0.462032
v -0.461363 0.513540 0.382715
v 0.000000 0.076590 -0.458661
v 0.000000 1.507680 -0.216408
v 0.000000 0.195358 0.648084
v 0.000000 0.518709 0.556743
v -0.182272 0.892802 0.663593
v -0.290021 1.045818 0.680593
v -0.208190 0.895227 0.477488
v -0.315939 1.048244 0.494488
v -0.030511 1.001856 0.643879
v -0.138260 1.154873 0.660879
v -0.056430 1.004282 0.457774
v -0.164178 1.157298 0.474774
v 0.269437 0.892802 0.640668
v 0.161689 1.045818 0.657668
v 0.243519 0.895227 0.454563
v 0.135770 1.048244 0.471563
v 0.421198 1.001856 0.620954
v 0.313449 1.154873 0.637954
v 0.395280 1.004282 0.434849
v 0.287531 1.157298 0.451849
v -0.553372 -0.145219 -0.010465
v 0.553372 -0.129525 -0.010465
v -0.276686 0.080105 -0.506017
v -0.015766 1.507679 0.399336
v -0.276686 -0.032973 0.600728
v -0.015647 1.012162 -0.461031
v -0.345485 0.515541 0.486327
v 0.310349 1.507679 -0.307260
v 0.557514 1.032214 -0.562142
v 0.003810 0.508914 -0.368831
v 0.337692 0.522542 0.491188
v 0.276686 -0.054977 -0.506017
v 0.276686 -0.054977 0.600728
v 0.002403 1.025599 0.653854
v 0.415029 0.110146 -0.529695
v 0.301261 1.507667 0.312513
v 0.415029 0.095147 0.577050
v -0.557553 -0.049561 -0.562735
v -0.308402 1.507692 0.292824
v -0.415029 0.151501 0.577050
v -0.536253 1.023745 0.526277
v -0.553372 -0.011390 0.271454
v 0.553372 0.078854 0.271454
v -0.557086 1.027491 -0.561689
v 0.553372 0.133169 -0.272224
v -0.461915 0.518394 -0.459550
v -0.553372 0.010327 -0.272224
v 0.461045 0.512720 0.334076
vt 0.499931 0.499469
vt 0.647890 0.750000
vt 0.500686 0.679056
vt 0.375000 0.186492
vt 0.437696 0.249899
vt 0.375000 0.248850
vt 0.375000 0.686318
vt 0.437388 0.748416
vt 0.375000 0.750000
vt 0.375000 0.468750
vt 0.437500 0.500000
vt 0.375000 0.500000
vt 0.438860 0.096398
vt 0.500202 0.375000
vt 0.499977 0.025611
vt 0.437382 0.376289
vt 0.375000 0.375000
vt 0.375000 0.312500
vt 0.749591 0.747890
vt 0.500000 0.371659
vt 0.375000 0.563508
vt 0.375000 0.622636
vt 0.375000 0.063682
vt 0.437500 0.000580
vt 0.375000 0.127364
vt 0.625000 0.250573
vt 0.500000 0.250460
vt 0.375000 0.437500
vt 0.437500 0.648496
vt 0.375000 0.093750
vt 0.375000 0.187500
vt 0.625000 -0.015063
vt 0.375000 0.000000
vt 0.750000 0.500000
vt 0.874430 0.500019
vt 0.625715 0.500000
vt 0.375000 0.375000
vt 0.375000 0.562500
vt 0.437500 0.375000
vt 0.625000 0.375000
vt 0.866437 0.760936
vt 0.375000 0.656250
vt 0.625000 0.499285
vt 0.375000 0.250000
vt 0.375000 0.000000
vt 0.625000 0.000000
vt 0.625000 0.250000
vt 0.625000 0.750000
vt 0.375000 0.750000
vt 0.375000 0.500000
vt 0.625000 0.500000
vt 0.375000 1.000000
vt 0.625000 1.000000
vt 0.125000 0.750000
vt 0.125000 0.500000
vt 0.875000 0.500000
vt 0.875000 0.750000
vt 0.375000 0.250000
vt 0.375000 0.000000
vt 0.625000 0.000000
vt 0.625000 0.250000
vt 0.625000 0.750000
vt 0.375000 0.750000
vt 0.375000 0.500000
vt 0.625000 0.500000
vt 0.375000 1.000000
vt 0.625000 1.000000
vt 0.125000 0.750000
vt 0.125000 0.500000
vt 0.875000 0.500000
vt 0.875000 0.750000
vn 0.9208 0.3854 0.0603
vn -0.9853 0.1697 -0.0208
vn 0.9648 0.1772 0.1944
vn 0.0602 0.1564 -0.9859
vn -0.2269 -0.1607 0.9606
vn 0.1678 0.1991 -0.9655
vn -0.2072 0.4506 0.8683
vn 0.1851 -0.1702 -0.9679
vn 0.9913 0.0926 0.0930
vn -0.9775 0.1905 -0.0904
vn 0.1791 0.3872 -0.9044
vn -0.0704 0.2035 -0.9765
vn -0.1645 -0.1839 -0.9691
vn 0.7431 -0.2927 0.6017
vn -0.1938 -0.1529 -0.9690
vn -0.2795 0.0972 -0.9552
vn -0.6342 -0.2943 0.7150
vn 0.1243 0.2175 0.9681
vn -0.9011 0.4333 0.0187
vn -0.9835 -0.1802 0.0182
vn -0.9856 0.1664 0.0301
vn 0.9588 0.2284 -0.1688
vn 0.9831 -0.1828 -0.0002
vn -0.0000 1.0000 0.0000
vn 0.9771 0.1660 -0.1331
vn -0.8901 0.4558 0.0029
vn 0.9953 -0.0704 0.0663
vn 0.2522 0.1943 0.9480
vn -0.1997 0.1824 -0.9627
vn -0.7210 0.2538 0.6447
vn 0.2548 0.4216 -0.8703
vn 0.1641 0.1723 -0.9713
vn 0.1759 -0.1619 -0.9710
vn -0.2914 0.5234 0.8007
vn -0.2545 0.2030 0.9455
vn 0.1862 0.4883 0.8526
vn -0.0384 0.1901 0.9810
vn -0.2026 0.4093 -0.8896
vn 0.1895 -0.1855 0.9642
vn 0.8081 0.2272 0.5435
vn -0.1947 -0.1837 0.9635
vn -0.9894 -0.1452 -0.0002
vn -0.9882 0.1514 0.0225
vn 0.8900 0.4557 0.0131
vn 0.9727 0.2319 0.0030
vn -0.8076 -0.5803 0.1049
vn 0.8076 0.5803 -0.1049
vn 0.1379 -0.0129 0.9904
vn 0.5734 -0.8143 -0.0905
vn -0.5734 0.8143 0.0905
usemtl ghost
s off
f 36/1/1 43/2/1 5/3/1
f 54/4/2 53/5/2 45/6/2
f 50/7/3 55/8/3 2/9/3
f 42/10/4 6/11/4 1/12/4
f 34/13/5 41/14/5 48/15/5
f 37/16/6 8/17/6 30/18/6
f 41/14/7 31/19/7 48/15/7
f 53/5/8 33/20/8 37/16/8
f 52/21/9 55/8/9 29/22/9
f 49/23/10 7/24/10 28/25/10
f 3/26/11 33/20/11 51/27/11
f 8/17/12 37/16/12 39/28/12
f 33/20/13 36/1/13 37/16/13
f 38/29/14 55/8/14 5/3/14
f 36/1/15 6/11/15 37/16/15
f 37/16/16 42/10/16 39/28/16
f 7/24/17 34/13/17 48/15/17
f 34/13/18 47/30/18 32/31/18
f 46/32/19 51/27/19 48/15/19
f 48/15/20 51/27/20 53/5/20
f 7/24/21 49/23/21 4/33/21
f 55/8/22 50/7/22 29/22/22
f 6/11/23 36/1/23 55/8/23
f 9/34/24 3/35/24 43/2/24
f 6/11/25 52/21/25 1/12/25
f 9/34/24 43/2/24 35/36/24
f 51/27/26 46/32/26 3/26/26
f 36/1/27 5/3/27 55/8/27
f 10/37/28 40/38/28 38/29/28 11/39/28
f 42/10/29 37/16/29 6/11/29
f 47/30/30 34/13/30 7/24/30 4/33/30
f 3/26/31 9/40/31 33/20/31
f 30/18/32 45/6/32 53/5/32 37/16/32
f 53/5/33 51/27/33 33/20/33
f 48/15/34 31/19/34 46/41/34
f 10/37/35 11/39/35 34/13/35 32/31/35
f 43/2/36 31/19/36 41/14/36 5/3/36
f 38/29/37 40/38/37 44/42/37
f 35/43/38 36/1/38 33/20/38 9/40/38
f 41/14/39 11/39/39 38/29/39 5/3/39
f 44/42/40 2/9/40 55/8/40 38/29/40
f 34/13/41 11/39/41 41/14/41
f 46/41/24 31/19/24 43/2/24 3/35/24
f 7/24/42 48/15/42 53/5/42
f 54/4/43 28/25/43 7/24/43 53/5/43
f 35/43/44 43/2/44 36/1/44
f 6/11/45 55/8/45 52/21/45
usemtl ghosteye
f 14/44/46 12/45/46 13/46/46 15/47/46
f 17/48/47 16/49/47 18/50/47 19/51/47
f 12/52/48 16/49/48 17/48/48 13/53/48
f 16/49/49 12/54/49 14/55/49 18/50/49
f 17/48/50 19/51/50 15/56/50 13/57/50
f 22/58/46 20/59/46 21/60/46 23/61/46
f 25/62/47 24/63/47 26/64/47 27/65/47
f 20/66/48 24/63/48 25/62/48 21/67/48
f 20/68/49 22/69/49 26/64/49 24/63/49
f 25/62/50 27/65/50 23/70/50 21/71/50
